<?xml version="1.0" encoding="UTF-8" standalone="no"?>
<svg
   xmlns:dc="http://purl.org/dc/elements/1.1/"
   xmlns:cc="http://creativecommons.org/ns#"
   xmlns:rdf="http://www.w3.org/1999/02/22-rdf-syntax-ns#"
   xmlns:svg="http://www.w3.org/2000/svg"
   xmlns="http://www.w3.org/2000/svg"
   viewBox="0 0 792 612"
   id="svg2"
   height="612"
   width="792"
   version="1.1">
  <metadata
     id="metadata14">
    <rdf:RDF>
      <cc:Work
         rdf:about="">
        <dc:format>image/svg+xml</dc:format>
        <dc:type
           rdf:resource="http://purl.org/dc/dcmitype/StillImage" />
      </cc:Work>
    </rdf:RDF>
  </metadata>
  <defs
     id="defs12" />
  <g
     id="g4">
    <path
       id="path6"
       style="fill:#231f20;fill-rule:evenodd"
       d="m 250.4995,438.0363 -25.6584,0 0,10.8092 c -8.5745,-6.7685 -19.4026,-10.8089 -31.1747,-10.8089 -27.8118,0 -50.3579,22.5461 -50.3579,50.358 0,27.8118 22.5461,50.3579 50.3579,50.3579 11.7721,0 22.6002,-4.0404 31.1747,-10.8088 l 0,5.4046 c 0,32.8064 -43.1726,31.8504 -56.5111,12.2491 l -17.5867,17.1281 c 11.6332,12.9217 27.0545,20.0164 47.0005,20.1491 l 5.7552,0 c 25.8505,0 47.0005,-21.15 47.0005,-47.0006 l 0,-50.8372 0,-47.0005 z m 296.3976,-25.2405 25.6584,0 0,65.813 41.365,-39.9762 34.4114,0 -42.7013,41.4111 0.2545,0 42.8064,57.6256 -30.272,0 -30.2368,-40.7045 -15.2675,14.8061 -0.3597,-0.3296 0,26.228 -25.6584,0 0,-124.8735 z m -66.695,25.2397 c 28.8886,0 52.3073,22.4388 52.3073,50.118 0,2.943 -0.2672,5.8262 -0.7755,8.6304 l -1.1427,0 -21.995,0 -53.7592,0 c 2.4202,8.1612 8.1816,14.7981 15.6225,18.1827 l 0.004,0.004 c 11.4364,5.7443 32.0303,3.9451 39.6296,-8.5354 l 16.7909,12.6668 c -13.6488,13.6493 -22.6642,19.1691 -46.6815,19.1691 -24.0172,0 -52.3069,-22.4388 -52.3069,-50.1179 0,-27.6792 23.4187,-50.118 52.3069,-50.118 z m 28.1316,40.644 c -3.7841,-11.5085 -14.2713,-19.7836 -26.6173,-19.7836 -12.3456,0 -22.8329,8.2751 -26.6169,19.7836 l 53.2342,0 z m -94.2915,-40.6432 -25.6584,0 0,10.8092 0,36.9316 0,5.1139 -0.0225,56.2577 c -0.4923,16.3787 -12.0454,11.2743 -24.9141,12.1237 l 0,23.6022 3.5945,0 c 26.8098,0 47.0005,-1.73 47.0005,-27.5806 l 0,-70.2572 0,-47.0005 z m -95.1677,-8e-4 c 29.5817,0 53.5627,22.4388 53.5627,50.118 0,27.6791 -23.981,50.1179 -53.5627,50.1179 -29.5817,0 -53.5627,-22.4388 -53.5627,-50.1179 0,-27.6792 23.981,-50.118 53.5627,-50.118 z m 0,22.4377 c 15.0493,0 27.2496,12.3931 27.2496,27.6803 0,15.2872 -12.2003,27.6802 -27.2496,27.6802 -15.0493,0 -27.2496,-12.393 -27.2496,-27.6802 0,-15.2872 12.2003,-27.6803 27.2496,-27.6803 z m -94.0334,25.3039 0,5.1139 c -1.2899,13.998 -13.0634,24.9605 -27.3982,24.9605 -15.1972,0 -27.5174,-12.3202 -27.5174,-27.5175 0,-15.1972 12.3202,-27.5174 27.5174,-27.5174 14.3348,0 26.1083,10.9625 27.3982,24.9605 z" />
    <path
       id="path8"
       style="fill:#00a650;fill-rule:evenodd"
       d="m 396,29.1254 c 93.9321,0 170.0787,76.1467 170.0787,170.0788 0,72.2806 -45.0927,134.021 -108.6781,158.6475 0.4323,-0.1675 0.8642,-0.3361 1.2951,-0.5069 -3.1271,1.0259 -6.4671,1.5831 -9.9372,1.5831 -17.5917,0 -31.8523,-14.2606 -31.8523,-31.8515 0,-12.8351 7.5929,-23.8948 18.5305,-28.9386 0.8016,-0.3198 1.5989,-0.6483 2.3899,-0.9874 0.1501,-0.0546 0.3012,-0.1071 0.4523,-0.1599 l 0,-0.0382 c 37.7727,-16.3581 64.201,-53.9643 64.201,-97.7481 0,-58.8075 -47.6724,-106.4799 -106.4799,-106.4799 -58.8075,0 -106.4799,47.6724 -106.4799,106.4799 0,43.7903 26.437,81.4006 64.2188,97.7561 l -0.0175,-0.008 0,0.0378 c 0.1475,0.0518 0.2957,0.1027 0.4429,0.1559 l 0.008,0.003 c 0.7954,0.3409 1.5963,0.6716 2.4019,0.9928 10.9326,5.0453 18.5204,16.1028 18.5204,28.9343 0,17.5909 -14.2607,31.8515 -31.8516,31.8515 -3.4715,0 -6.8123,-0.5576 -9.9404,-1.5842 0.4435,0.1759 0.8886,0.3496 1.334,0.5219 C 271.0311,333.25 225.9213,271.4983 225.9213,199.2042 225.9213,105.2721 302.0679,29.1254 396,29.1254 Z m 0.0503,106.8433 c 34.992,0 63.3577,28.3658 63.3577,63.3578 0,34.9917 -28.3657,63.3574 -63.3577,63.3574 -34.9917,0 -63.3575,-28.3657 -63.3575,-63.3574 0,-34.992 28.3658,-63.3578 63.3575,-63.3578 z" />
  </g>
</svg>
