<svg xmlns="http://www.w3.org/2000/svg" viewBox="0 0 792 612" height="612" width="792"><g fill-rule="evenodd"><path d="M250.5 438.036h-25.66v10.81a50.14 50.14 0 00-31.175-10.81c-27.811 0-50.357 22.547-50.357 50.359 0 27.811 22.546 50.357 50.357 50.357a50.14 50.14 0 0031.175-10.808v5.404c0 32.807-43.172 31.85-56.511 12.25l-17.587 17.127c11.634 12.922 27.055 20.017 47 20.15h5.756c25.85 0 47-21.15 47-47.001v-97.837zm296.397-25.24h25.658v65.813l41.366-39.976h34.41l-42.7 41.41h.254l42.806 57.626H618.42l-30.236-40.704-15.268 14.806-.36-.33v26.228h-25.658V412.796zm-66.695 25.24c28.889 0 52.307 22.438 52.307 50.117 0 2.943-.267 5.827-.775 8.63h-76.897c2.42 8.162 8.182 14.799 15.623 18.184l.004.004c11.436 5.744 32.03 3.945 39.63-8.536l16.79 12.667c-13.649 13.65-22.664 19.17-46.681 19.17-24.018 0-52.307-22.44-52.307-50.119s23.418-50.118 52.306-50.118zm28.132 40.643c-3.784-11.508-14.272-19.783-26.618-19.783-12.345 0-22.832 8.275-26.616 19.783h53.234zm-94.292-40.643h-25.658v52.855l-.023 56.258c-.492 16.378-12.045 11.274-24.914 12.123v23.603h3.595c26.81 0 47-1.73 47-27.581V438.037zm-95.167 0c29.581 0 53.562 22.438 53.562 50.117 0 27.68-23.98 50.118-53.562 50.118-29.582 0-53.563-22.438-53.563-50.117 0-27.68 23.98-50.119 53.562-50.119zm0 22.437c15.049 0 27.25 12.393 27.25 27.68 0 15.288-12.201 27.68-27.25 27.68-15.05 0-27.25-12.392-27.25-27.68 0-15.287 12.2-27.68 27.25-27.68zm-94.034 25.304v5.114c-1.29 13.998-13.063 24.96-27.398 24.96-15.197 0-27.518-12.32-27.518-27.517s12.32-27.517 27.518-27.517c14.335 0 26.108 10.962 27.398 24.96z" fill="#231f20"/><path d="M396 29.125c93.932 0 170.079 76.147 170.079 170.08 0 72.28-45.093 134.02-108.678 158.647.432-.168.864-.336 1.295-.507a31.824 31.824 0 01-9.937 1.583c-17.592 0-31.853-14.26-31.853-31.852 0-12.835 7.593-23.894 18.53-28.938.802-.32 1.6-.648 2.39-.988l.453-.16v-.038c37.773-16.358 64.2-53.964 64.2-97.748 0-58.807-47.671-106.48-106.479-106.48-58.807 0-106.48 47.673-106.48 106.48 0 43.79 26.437 81.4 64.219 97.756l-.018-.008v.038c.148.052.296.103.443.156l.008.003c.796.34 1.597.672 2.402.993 10.933 5.045 18.52 16.103 18.52 28.934 0 17.591-14.26 31.852-31.851 31.852a31.81 31.81 0 01-9.94-1.585c.443.176.888.35 1.334.522-63.606-24.615-108.716-86.367-108.716-158.66 0-93.933 76.147-170.08 170.079-170.08zm.05 106.844c34.992 0 63.358 28.366 63.358 63.358 0 34.991-28.366 63.357-63.358 63.357-34.991 0-63.357-28.366-63.357-63.358 0-34.991 28.366-63.357 63.357-63.357z" fill="#00a650"/></g></svg>